<svg width="141" height="42" viewBox="0 0 141 42" fill="none" xmlns="http://www.w3.org/2000/svg">
<path d="M41.04 20.52C41.04 24.5785 39.8365 28.5458 37.5818 31.9203C35.327 35.2948 32.1222 37.9249 28.3727 39.478C24.6231 41.0311 20.4972 41.4375 16.5168 40.6457C12.5363 39.8539 8.87995 37.8996 6.01018 35.0298C3.1404 32.1601 1.18606 28.5037 0.394295 24.5233C-0.397473 20.5428 0.00889099 16.4169 1.562 12.6673C3.11511 8.9178 5.74521 5.71301 9.11971 3.45824C12.4942 1.20348 16.4615 0 20.52 0C25.9623 0 31.1816 2.16192 35.0298 6.01017C38.8781 9.85842 41.04 15.0778 41.04 20.52Z" fill="#3B43F2"/>
<path d="M10.8032 18.2039C10.8038 16.7694 11.374 15.3939 12.3885 14.3797C13.403 13.3656 14.7787 12.7959 16.2132 12.7959H36.5592C36.5592 13.5061 36.4193 14.2093 36.1476 14.8655C35.8758 15.5216 35.4774 16.1178 34.9753 16.6199C34.4731 17.1221 33.8769 17.5205 33.2208 17.7922C32.5646 18.064 31.8614 18.2039 31.1512 18.2039H10.8032Z" fill="white"/>
<path d="M16.2132 25.9C16.2127 27.3345 15.6425 28.71 14.628 29.7241C13.6134 30.7383 12.2377 31.308 10.8032 31.308V25.501H16.2132V25.9Z" fill="white"/>
<path d="M8.40702 19.147H27.091C27.091 20.5813 26.5213 21.9568 25.5071 22.971C24.4929 23.9852 23.1173 24.555 21.683 24.555H2.99902C2.99955 23.1205 3.56977 21.745 4.58428 20.7308C5.5988 19.7167 6.97455 19.147 8.40902 19.147" fill="white"/>
<path d="M57.4169 15.0699H49.7029V18.9139H56.8809V22.4829H49.7029V29.5579H45.6299V11.4829H57.4169V15.0699Z" fill="#2D2D2D"/>
<path d="M55.6089 29.554L63.4489 11.481H66.9369L74.4689 29.554H70.2479L68.7959 25.864H61.3329L59.8329 29.554H55.6089ZM62.7569 22.402H67.4159L65.1289 16.572L62.7569 22.402Z" fill="#2D2D2D"/>
<path d="M75.668 29.554V11.481H79.817V25.915H87.6299L87.375 29.555L75.668 29.554Z" fill="#2D2D2D"/>
<path d="M89.21 29.5549V11.4819H93.359V19.2999L100.384 11.4849H105.373L97.151 20.5239C97.5435 20.7291 97.9004 20.9962 98.208 21.3149C98.5262 21.6428 98.8121 22.0004 99.062 22.3829L100.613 24.9039C100.844 25.2999 101.165 25.6357 101.55 25.8839C101.92 26.0883 102.338 26.1892 102.76 26.1759C103.069 26.178 103.377 26.1397 103.676 26.0619C103.98 25.9769 104.269 25.8446 104.532 25.6699L105.469 28.8769C105.049 29.1975 104.569 29.4314 104.057 29.5649C103.465 29.7359 102.852 29.8218 102.236 29.8199C101.246 29.874 100.26 29.6559 99.3845 29.1893C98.5094 28.7226 97.7789 28.0253 97.272 27.1729L95.108 23.7109C94.9037 23.3612 94.6467 23.0452 94.346 22.7739C94.0584 22.5478 93.7155 22.4027 93.353 22.3539V29.5539L89.21 29.5549Z" fill="#2D2D2D"/>
<path d="M113.898 29.8089C112.208 29.8712 110.529 29.5128 109.011 28.7659C107.681 28.0785 106.59 27.0048 105.881 25.6859C105.116 24.1911 104.74 22.5275 104.787 20.8489C104.753 19.112 105.151 17.394 105.945 15.8489C106.688 14.4263 107.823 13.2465 109.216 12.4489C110.748 11.6043 112.477 11.1828 114.226 11.2279C115.801 11.1929 117.357 11.581 118.731 12.3519C120.01 13.0861 121.055 14.1665 121.747 15.4689C122.499 16.9191 122.872 18.5359 122.83 20.1689C122.872 21.9237 122.479 23.6616 121.684 25.2269C120.965 26.623 119.867 27.7879 118.516 28.5879C117.113 29.4012 115.517 29.8242 113.895 29.8129L113.898 29.8089ZM113.743 26.1229C114.409 26.1435 115.07 26.0134 115.679 25.7422C116.287 25.471 116.826 25.0658 117.255 24.5569C118.217 23.3223 118.697 21.7794 118.604 20.2169C118.677 18.8265 118.243 17.457 117.383 16.3619C116.981 15.8883 116.477 15.5126 115.908 15.2633C115.34 15.0139 114.722 14.8975 114.101 14.9229C113.168 14.9055 112.249 15.1621 111.46 15.6609C110.685 16.1657 110.064 16.8747 109.665 17.7099C109.214 18.668 108.991 19.718 109.015 20.7769C108.925 22.2041 109.376 23.613 110.276 24.7239C110.718 25.1969 111.258 25.5673 111.858 25.8092C112.459 26.0511 113.105 26.1585 113.751 26.1239" fill="#2D2D2D"/>
<path d="M136.149 11.481H140.149V29.554H136.459L128.439 18.329V29.554H124.439V11.481H128.129L136.149 22.708V11.481Z" fill="#2D2D2D"/>
</svg>
